HIERARCHY
ROOT mixamorig:Hips
{
	OFFSET 0.000000 201.639420 0.000000
	CHANNELS 6 Xposition Yposition Zposition Xrotation Yrotation Zrotation
	JOINT mixamorig:Spine
	{
		OFFSET 0.006200 19.524994 -2.481800
		CHANNELS 3 Xrotation Yrotation Zrotation
		JOINT mixamorig:Spine1
		{
			OFFSET -0.000900 22.835007 -2.825400
			CHANNELS 3 Xrotation Yrotation Zrotation
			JOINT mixamorig:Spine2
			{
				OFFSET -0.020600 26.552490 -3.193300
				CHANNELS 3 Xrotation Yrotation Zrotation
				JOINT mixamorig:Neck
				{
					OFFSET -0.060000 30.701813 1.352200
					CHANNELS 3 Xrotation Yrotation Zrotation
					JOINT mixamorig:Head
					{
						OFFSET -0.087200 22.547607 3.670900
						CHANNELS 3 Xrotation Yrotation Zrotation
						JOINT mixamorig:HeadTop_End
						{
							OFFSET -0.830600 40.355194 7.893500
							CHANNELS 3 Xrotation Yrotation Zrotation
							End Site
							{
								OFFSET 0.000000 30.592346 0.000000
							}
						}
						JOINT mixamorig:RightEye
						{
							OFFSET -6.302100 18.118591 16.197100
							CHANNELS 3 Xrotation Yrotation Zrotation
							End Site
							{
								OFFSET 0.000000 30.592346 0.000000
							}
						}
						JOINT mixamorig:LeftEye
						{
							OFFSET 6.741500 18.382690 16.401899
							CHANNELS 3 Xrotation Yrotation Zrotation
							End Site
							{
								OFFSET 0.000000 30.592346 0.000000
							}
						}
					}
				}
				JOINT mixamorig:LeftShoulder
				{
					OFFSET 11.924900 18.230499 1.425400
					CHANNELS 3 Xrotation Yrotation Zrotation
					JOINT mixamorig:LeftArm
					{
						OFFSET 25.435989 -0.697632 -5.229300
						CHANNELS 3 Xrotation Yrotation Zrotation
						JOINT mixamorig:LeftForeArm
						{
							OFFSET 54.684776 0.000000 0.000000
							CHANNELS 3 Xrotation Yrotation Zrotation
							JOINT mixamorig:LeftHand
							{
								OFFSET 55.098175 0.000000 0.000000
								CHANNELS 3 Xrotation Yrotation Zrotation
								JOINT mixamorig:LeftHandMiddle1
								{
									OFFSET 23.369751 0.000000 0.000000
									CHANNELS 3 Xrotation Yrotation Zrotation
									JOINT mixamorig:LeftHandMiddle2
									{
										OFFSET 6.378677 0.000000 0.000000
										CHANNELS 3 Xrotation Yrotation Zrotation
										JOINT mixamorig:LeftHandMiddle3
										{
											OFFSET 6.148331 0.000000 0.000000
											CHANNELS 3 Xrotation Yrotation Zrotation
											JOINT mixamorig:LeftHandMiddle4
											{
												OFFSET 6.582504 0.000000 0.000000
												CHANNELS 3 Xrotation Yrotation Zrotation
												End Site
												{
													OFFSET -1.168900 6.395691 1.028606
												}
											}
										}
									}
								}
								JOINT mixamorig:LeftHandThumb1
								{
									OFFSET 7.235672 -3.848206 5.434273
									CHANNELS 3 Xrotation Yrotation Zrotation
									JOINT mixamorig:LeftHandThumb2
									{
										OFFSET 6.568451 -3.792297 3.792300
										CHANNELS 3 Xrotation Yrotation Zrotation
										JOINT mixamorig:LeftHandThumb3
										{
											OFFSET 6.063080 -3.500519 3.500518
											CHANNELS 3 Xrotation Yrotation Zrotation
											JOINT mixamorig:LeftHandThumb4
											{
												OFFSET 4.793182 -2.767334 2.767349
												CHANNELS 3 Xrotation Yrotation Zrotation
												End Site
												{
													OFFSET 0.101639 6.054260 1.275483
												}
											}
										}
									}
								}
								JOINT mixamorig:LeftHandIndex1
								{
									OFFSET 23.101074 -0.309540 4.992809
									CHANNELS 3 Xrotation Yrotation Zrotation
									JOINT mixamorig:LeftHandIndex2
									{
										OFFSET 6.226883 0.000000 0.000000
										CHANNELS 3 Xrotation Yrotation Zrotation
										JOINT mixamorig:LeftHandIndex3
										{
											OFFSET 6.094330 0.000000 0.000000
											CHANNELS 3 Xrotation Yrotation Zrotation
											JOINT mixamorig:LeftHandIndex4
											{
												OFFSET 5.482605 0.000000 0.000000
												CHANNELS 3 Xrotation Yrotation Zrotation
												End Site
												{
													OFFSET -1.427902 5.233032 0.797164
												}
											}
										}
									}
								}
								JOINT mixamorig:LeftHandRing1
								{
									OFFSET 22.299240 0.021149 -3.964172
									CHANNELS 3 Xrotation Yrotation Zrotation
									JOINT mixamorig:LeftHandRing2
									{
										OFFSET 6.321869 0.000000 0.000000
										CHANNELS 3 Xrotation Yrotation Zrotation
										JOINT mixamorig:LeftHandRing3
										{
											OFFSET 5.899796 0.000000 0.000000
											CHANNELS 3 Xrotation Yrotation Zrotation
											JOINT mixamorig:LeftHandRing4
											{
												OFFSET 6.517899 0.000000 0.000000
												CHANNELS 3 Xrotation Yrotation Zrotation
												End Site
												{
													OFFSET -1.637299 6.232208 0.980890
												}
											}
										}
									}
								}
								JOINT mixamorig:LeftHandPinky1
								{
									OFFSET 20.463791 -0.302338 -8.562233
									CHANNELS 3 Xrotation Yrotation Zrotation
									JOINT mixamorig:LeftHandPinky2
									{
										OFFSET 6.908646 0.000000 0.000000
										CHANNELS 3 Xrotation Yrotation Zrotation
										JOINT mixamorig:LeftHandPinky3
										{
											OFFSET 4.622849 0.000000 0.000000
											CHANNELS 3 Xrotation Yrotation Zrotation
											JOINT mixamorig:LeftHandPinky4
											{
												OFFSET 5.216080 0.000000 0.000000
												CHANNELS 3 Xrotation Yrotation Zrotation
												End Site
												{
													OFFSET -0.606308 5.116241 0.814926
												}
											}
										}
									}
								}
							}
						}
					}
				}
				JOINT mixamorig:RightShoulder
				{
					OFFSET -12.001300 18.284088 1.348900
					CHANNELS 3 Xrotation Yrotation Zrotation
					JOINT mixamorig:RightArm
					{
						OFFSET -25.308500 -0.751312 -5.164599
						CHANNELS 3 Xrotation Yrotation Zrotation
						JOINT mixamorig:RightForeArm
						{
							OFFSET -54.684429 0.000000 0.000000
							CHANNELS 3 Xrotation Yrotation Zrotation
							JOINT mixamorig:RightHand
							{
								OFFSET -55.150291 0.000000 0.000000
								CHANNELS 3 Xrotation Yrotation Zrotation
								JOINT mixamorig:RightHandMiddle1
								{
									OFFSET -23.317566 0.000000 0.000000
									CHANNELS 3 Xrotation Yrotation Zrotation
									JOINT mixamorig:RightHandMiddle2
									{
										OFFSET -6.378403 0.000000 0.000000
										CHANNELS 3 Xrotation Yrotation Zrotation
										JOINT mixamorig:RightHandMiddle3
										{
											OFFSET -6.148193 0.000000 0.000000
											CHANNELS 3 Xrotation Yrotation Zrotation
											JOINT mixamorig:RightHandMiddle4
											{
												OFFSET -6.583389 0.000000 0.000000
												CHANNELS 3 Xrotation Yrotation Zrotation
												End Site
												{
													OFFSET 1.171692 6.395905 1.029786
												}
											}
										}
									}
								}
								JOINT mixamorig:RightHandThumb1
								{
									OFFSET -7.190521 -3.860474 5.435846
									CHANNELS 3 Xrotation Yrotation Zrotation
									JOINT mixamorig:RightHandThumb2
									{
										OFFSET -6.567429 -3.791718 3.791708
										CHANNELS 3 Xrotation Yrotation Zrotation
										JOINT mixamorig:RightHandThumb3
										{
											OFFSET -6.062469 -3.500153 3.500166
											CHANNELS 3 Xrotation Yrotation Zrotation
											JOINT mixamorig:RightHandThumb4
											{
												OFFSET -4.792618 -2.767029 2.767022
												CHANNELS 3 Xrotation Yrotation Zrotation
												End Site
												{
													OFFSET -0.100327 6.053253 1.276754
												}
											}
										}
									}
								}
								JOINT mixamorig:RightHandIndex1
								{
									OFFSET -23.048981 -0.310791 4.992554
									CHANNELS 3 Xrotation Yrotation Zrotation
									JOINT mixamorig:RightHandIndex2
									{
										OFFSET -6.227539 0.000000 0.000000
										CHANNELS 3 Xrotation Yrotation Zrotation
										JOINT mixamorig:RightHandIndex3
										{
											OFFSET -6.095047 0.000000 0.000000
											CHANNELS 3 Xrotation Yrotation Zrotation
											JOINT mixamorig:RightHandIndex4
											{
												OFFSET -5.484772 0.000000 0.000000
												CHANNELS 3 Xrotation Yrotation Zrotation
												End Site
												{
													OFFSET 1.420593 5.237305 0.797056
												}
											}
										}
									}
								}
								JOINT mixamorig:RightHandRing1
								{
									OFFSET -22.246323 0.020569 -3.963762
									CHANNELS 3 Xrotation Yrotation Zrotation
									JOINT mixamorig:RightHandRing2
									{
										OFFSET -6.322128 0.000000 0.000000
										CHANNELS 3 Xrotation Yrotation Zrotation
										JOINT mixamorig:RightHandRing3
										{
											OFFSET -5.900024 0.000000 0.000000
											CHANNELS 3 Xrotation Yrotation Zrotation
											JOINT mixamorig:RightHandRing4
											{
												OFFSET -6.518356 0.000000 0.000000
												CHANNELS 3 Xrotation Yrotation Zrotation
												End Site
												{
													OFFSET 1.636398 6.232697 0.982186
												}
											}
										}
									}
								}
								JOINT mixamorig:RightHandPinky1
								{
									OFFSET -20.411011 -0.303314 -8.561701
									CHANNELS 3 Xrotation Yrotation Zrotation
									JOINT mixamorig:RightHandPinky2
									{
										OFFSET -6.907349 0.000000 0.000000
										CHANNELS 3 Xrotation Yrotation Zrotation
										JOINT mixamorig:RightHandPinky3
										{
											OFFSET -4.623840 0.000000 0.000000
											CHANNELS 3 Xrotation Yrotation Zrotation
											JOINT mixamorig:RightHandPinky4
											{
												OFFSET -5.218353 0.000000 0.000000
												CHANNELS 3 Xrotation Yrotation Zrotation
												End Site
												{
													OFFSET 0.602097 5.118835 0.816273
												}
											}
										}
									}
								}
							}
						}
					}
				}
			}
		}
	}
	JOINT mixamorig:LeftUpLeg
	{
		OFFSET 18.168400 -13.561905 -0.039000
		CHANNELS 3 Xrotation Yrotation Zrotation
		JOINT mixamorig:LeftLeg
		{
			OFFSET 0.577358 -80.825211 -3.695000
			CHANNELS 3 Xrotation Yrotation Zrotation
			JOINT mixamorig:LeftFoot
			{
				OFFSET -0.577356 -83.370262 -6.520700
				CHANNELS 3 Xrotation Yrotation Zrotation
				JOINT mixamorig:LeftToeBase
				{
					OFFSET 0.750401 -20.798306 25.135401
					CHANNELS 3 Xrotation Yrotation Zrotation
					JOINT mixamorig:LeftToe_End
					{
						OFFSET -0.000500 0.001200 19.917799
						CHANNELS 3 Xrotation Yrotation Zrotation
						End Site
						{
							OFFSET 0.000000 19.917805 0.000000
						}
					}
				}
			}
		}
	}
	JOINT mixamorig:RightUpLeg
	{
		OFFSET -18.162500 -13.585098 -0.041000
		CHANNELS 3 Xrotation Yrotation Zrotation
		JOINT mixamorig:RightLeg
		{
			OFFSET -0.595024 -80.945297 -3.631900
			CHANNELS 3 Xrotation Yrotation Zrotation
			JOINT mixamorig:RightFoot
			{
				OFFSET 0.595024 -83.218193 -6.561200
				CHANNELS 3 Xrotation Yrotation Zrotation
				JOINT mixamorig:RightToeBase
				{
					OFFSET -0.753601 -20.807106 25.115000
					CHANNELS 3 Xrotation Yrotation Zrotation
					JOINT mixamorig:RightToe_End
					{
						OFFSET 0.000299 0.001700 19.918200
						CHANNELS 3 Xrotation Yrotation Zrotation
						End Site
						{
							OFFSET 0.000000 19.918203 0.000000
						}
					}
				}
			}
		}
	}
}
MOTION
Frames: 5
Frame Time: 0.033333
-0.134103 121.307693 1.022134 0.143812 -0.056301 0.980423 10.431517 -0.021404 -1.580931 -0.199240 0.213202 -0.357434 -0.199568 0.248109 -0.302453 -1.001767 -1.277161 0.469482 -8.883423 -4.319961 -5.320558 -0.000000 -0.000000 0.000000 -0.000000 -0.000000 0.000000 -0.000000 -0.000000 0.000000 0.823527 -15.262008 -7.868730 4.748499 -21.214725 -54.860855 -0.000015 -62.200026 -0.000029 31.063014 4.319684 41.770742 1.299139 7.334278 -16.511224 0.329951 1.940058 -19.302063 0.233123 1.637783 -16.201251 -0.000000 -0.000001 -0.000001 6.610608 1.798233 20.801490 2.716378 20.172600 -24.389166 -5.534649 29.848442 5.070909 0.000003 0.000003 0.000001 -0.235318 2.798244 -26.911750 0.396822 2.121255 -21.189310 0.083132 0.984456 -9.653129 0.000000 0.000001 -0.000001 1.797302 9.807643 -14.184934 0.205900 1.541007 -15.219478 0.265323 1.744711 -17.292067 -0.000000 0.000001 -0.000003 2.041309 10.867536 -13.918938 0.168520 1.396429 -13.761323 0.107161 1.116559 -10.963904 0.000000 0.000000 0.000002 3.171075 -4.378680 8.782940 -3.957553 37.257575 63.740391 0.000027 55.129250 -0.000037 43.536801 4.756592 -36.277310 0.105548 -3.665052 2.525359 0.585001 -2.261695 29.000580 0.020458 -0.436571 5.367140 0.000001 0.000001 -0.000004 -9.383501 -1.613347 -17.604717 3.557079 -24.337047 34.656848 -6.608505 -37.497312 -11.176215 0.000003 0.000001 0.000003 2.957834 1.012867 13.530000 0.472464 -2.045696 26.006738 0.059755 -0.744394 9.177802 0.000001 -0.000003 -0.000000 0.456429 -7.644362 4.305915 0.107460 -0.995724 12.319040 0.072402 -0.818814 10.104473 -0.000002 0.000001 -0.000002 -11.162302 -10.227922 7.169814 0.029117 -0.520508 6.403083 0.028648 -0.516332 6.351263 0.000001 0.000001 -0.000001 -90.563056 -5.794099 10.939269 82.759517 6.665679 0.251065 8.910929 -7.272847 -5.608455 -0.124403 0.000001 -0.000001 -0.000000 0.000000 -0.000000 -91.244285 7.188511 -7.181572 82.590443 -6.372025 -1.881332 9.891106 0.275103 6.661565 -0.191616 -0.000007 -0.000000 -0.000000 0.000001 0.000000 
-0.156807 121.384079 1.056075 -0.017842 -0.119263 1.053897 10.426376 0.007167 -1.599518 -0.224513 0.268734 -0.365784 -0.224621 0.302966 -0.316611 -0.508995 -1.277161 0.432046 -8.663870 -4.375148 -5.117423 -0.000000 -0.000000 -0.000000 -0.000000 -0.000000 -0.000000 -0.000000 -0.000000 -0.000000 0.825201 -15.184308 -7.856617 4.466143 -21.478073 -55.016771 -0.000007 -61.589134 -0.000025 31.056327 4.084181 41.615076 1.276382 7.230579 -16.654448 0.331579 1.944720 -19.350290 0.234280 1.641747 -16.241794 0.000002 0.000000 0.000002 6.032204 1.748057 21.069124 2.867447 20.156882 -24.527003 -5.636697 29.940930 5.346969 -0.000002 0.000001 0.000001 -0.285489 2.781068 -26.911645 0.398579 2.125748 -21.236194 0.083928 0.989185 -9.700101 -0.000001 0.000003 -0.000000 1.808263 9.808896 -14.280484 0.208416 1.550252 -15.313048 0.268116 1.753680 -17.383885 -0.000000 -0.000003 0.000005 1.893339 10.710269 -13.943231 0.170083 1.402822 -13.825695 0.108416 1.123034 -11.028204 -0.000001 0.000002 -0.000003 3.075764 -4.423486 8.120090 -0.937007 36.764443 61.278149 -0.000044 60.574386 0.000040 41.990227 1.373296 -27.032608 0.063505 -3.181044 0.999127 0.452074 -2.003401 25.429547 0.035768 -0.576729 7.098086 0.000001 0.000001 -0.000004 -7.899856 -0.064415 -17.180586 4.954433 -25.790851 33.559895 -3.836895 -36.769186 -10.024267 0.000003 -0.000001 0.000001 2.574830 1.220932 10.825735 0.341564 -1.752287 22.058241 0.075529 -0.836303 10.322413 0.000002 -0.000001 0.000000 0.250244 -6.601883 2.583981 0.064242 -0.771663 9.516966 0.106231 -0.990094 12.248161 -0.000000 -0.000001 -0.000000 -10.546653 -9.127808 4.475445 0.014984 -0.373641 4.591814 0.051080 -0.688636 8.484851 -0.000001 0.000000 0.000003 -90.318972 -5.754422 10.967973 82.752147 6.694318 0.251053 8.849826 -7.266576 -5.660593 -0.124396 0.000005 0.000000 -0.000000 0.000001 0.000000 -91.067780 7.170456 -7.209390 82.594985 -6.277775 -1.881231 9.846283 0.264388 6.586302 -0.191616 -0.000009 -0.000000 -0.000000 0.000001 -0.000000 
-0.156642 121.455414 1.081309 -0.288512 -0.119382 1.105996 10.403364 0.018040 -1.611017 -0.274002 0.284078 -0.371311 -0.274080 0.318476 -0.321430 0.113804 -1.277161 0.398334 -8.375398 -4.464744 -4.876720 0.000000 0.000000 0.000000 0.000000 0.000000 0.000000 0.000000 0.000000 0.000000 0.845424 -15.280590 -7.669520 4.251830 -21.722684 -55.265830 0.000029 -60.836775 0.000034 30.780466 3.836130 41.640289 1.267059 7.166579 -16.827791 0.332919 1.948515 -19.389421 0.235270 1.645128 -16.275998 -0.000001 0.000002 -0.000001 5.625385 1.752115 21.265651 2.990131 20.146280 -24.636315 -5.716711 30.013928 5.562606 0.000001 -0.000001 0.000003 -0.321499 2.769483 -26.910274 0.399861 2.129085 -21.271217 0.084532 0.992719 -9.735007 -0.000001 -0.000002 0.000002 1.837452 9.851606 -14.440282 0.210340 1.557259 -15.383864 0.270333 1.760737 -17.455892 -0.000000 0.000001 -0.000001 1.795704 10.601259 -14.071711 0.170560 1.404754 -13.844958 0.108790 1.124952 -11.047486 -0.000001 0.000001 -0.000000 2.965348 -4.665623 7.011604 3.071314 37.010374 57.738430 0.000037 66.428343 -0.000047 38.615704 -1.306265 -19.277488 0.048988 -2.716971 0.106433 0.353456 -1.781338 22.443713 0.058296 -0.735344 9.065012 0.000005 -0.000001 -0.000003 -6.515060 1.467388 -16.851919 6.222972 -27.153274 32.368280 -1.076327 -35.744767 -8.854272 0.000002 0.000002 0.000003 2.202489 1.427254 8.658669 0.244672 -1.491123 18.635510 0.090360 -0.913874 11.292289 -0.000000 0.000000 -0.000004 0.144711 -5.616558 1.564768 0.039195 -0.603572 7.430232 0.153055 -1.185347 14.713991 -0.000001 -0.000000 0.000004 -9.830407 -8.258684 2.535673 0.008785 -0.286210 3.515732 0.080200 -0.861473 10.636984 -0.000002 0.000001 -0.000003 -89.994067 -5.677418 10.981921 82.753090 6.651116 0.250844 8.789110 -7.246050 -5.657271 -0.124399 0.000000 0.000002 -0.000000 0.000000 -0.000000 -90.769273 7.165707 -7.284351 82.621657 -6.203407 -1.881196 9.781218 0.254805 6.545553 -0.191616 -0.000008 -0.000000 -0.000000 0.000001 0.000000 
-0.153106 121.461746 1.105417 -0.602164 -0.063903 1.128954 10.362393 0.009629 -1.615020 -0.356215 0.254235 -0.380741 -0.356467 0.288843 -0.330940 0.770043 -1.284277 0.384460 -7.986865 -4.638011 -4.476528 -0.000000 -0.000000 0.000000 -0.000000 -0.000000 0.000000 -0.000000 -0.000000 0.000000 0.879996 -15.377281 -7.386123 4.153770 -22.058673 -55.502906 0.000031 -60.018027 0.000023 30.285165 3.623033 41.783344 1.258716 7.118934 -16.937568 0.334318 1.952494 -19.430911 0.236351 1.648858 -16.313920 0.000001 -0.000001 -0.000001 5.273332 1.805704 21.467544 3.193079 20.112458 -24.829174 -5.841910 30.100784 5.876630 0.000000 0.000001 -0.000001 -0.361439 2.751355 -26.855435 0.400828 2.131567 -21.297261 0.084989 0.995332 -9.760916 -0.000002 -0.000001 0.000000 1.860257 9.878174 -14.580055 0.211674 1.562073 -15.433033 0.271842 1.765529 -17.505080 -0.000000 -0.000000 0.000001 1.710913 10.508551 -14.200793 0.170206 1.403320 -13.830645 0.108517 1.123540 -11.033124 0.000001 -0.000000 0.000002 2.786855 -5.252860 5.536866 7.475858 37.847690 53.777088 -0.000064 71.905342 0.000050 33.923190 -2.389001 -13.730808 0.048086 -2.304161 0.411706 0.303179 -1.654461 20.766743 0.089894 -0.911624 11.263959 -0.000001 -0.000001 -0.000003 -4.733191 2.885779 -16.841184 7.298915 -28.327200 31.029102 1.646298 -34.551369 -7.749966 0.000002 -0.000002 0.000002 1.847579 1.575340 7.507786 0.183979 -1.297387 16.141759 0.107132 -0.994182 12.299572 0.000000 -0.000002 0.000001 0.132703 -4.734762 1.951955 0.037656 -0.591683 7.283014 0.224022 -1.428459 17.825139 -0.000002 0.000001 0.000004 -9.018489 -7.674196 2.233797 0.012125 -0.336186 4.130585 0.118975 -1.047038 12.964801 -0.000002 -0.000002 0.000006 -89.691271 -5.598528 10.984052 82.798811 6.539289 0.245832 8.734973 -7.212287 -5.615815 -0.124390 0.000003 0.000002 -0.000000 0.000000 0.000000 -90.456239 7.175136 -7.378219 82.706740 -6.166997 -1.881197 9.700726 0.249870 6.542374 -0.191616 -0.000007 -0.000000 -0.000000 -0.000000 -0.000000 
-0.197699 121.456589 1.053370 -0.932609 0.020562 1.155895 10.302285 -0.016976 -1.620654 -0.476489 0.188086 -0.411104 -0.477124 0.223308 -0.361335 1.347838 -1.307357 0.432993 -7.595618 -4.886974 -3.896898 -0.000000 0.000000 -0.000000 -0.000000 0.000000 -0.000000 -0.000000 0.000000 -0.000000 0.909557 -15.407317 -7.146680 4.186202 -22.351664 -55.662538 0.000038 -59.287572 0.000041 29.786530 3.486148 41.892866 1.241470 7.061140 -16.950409 0.336136 1.957630 -19.483975 0.237774 1.653686 -16.363238 -0.000002 0.000001 -0.000001 4.865986 1.838752 21.702151 3.548753 20.032443 -25.182474 -6.067440 30.239454 6.424331 -0.000001 0.000000 -0.000000 -0.414976 2.717962 -26.737124 0.401982 2.134490 -21.327887 0.085529 0.998462 -9.791874 0.000001 0.000001 -0.000002 1.857264 9.842391 -14.640207 0.212326 1.564448 -15.456933 0.272446 1.767420 -17.524640 0.000002 0.000000 0.000002 1.605607 10.401688 -14.248073 0.169598 1.400799 -13.805448 0.108020 1.120997 -11.007932 -0.000004 -0.000001 0.000002 2.504523 -6.003100 4.067769 11.392701 38.995100 49.782336 0.000002 76.371692 0.000003 28.117010 -1.685681 -9.300224 0.033582 -1.955925 2.046794 0.301064 -1.648870 20.693716 0.131344 -1.099421 13.625671 0.000003 0.000001 0.000000 -2.203270 4.153373 -17.340305 8.153050 -29.245128 29.532560 4.322142 -33.461715 -6.809023 0.000001 -0.000001 -0.000003 1.508853 1.626909 7.542481 0.152798 -1.184345 14.701426 0.132284 -1.103287 13.674701 -0.000000 0.000003 -0.000002 0.154854 -3.963634 3.966550 0.066501 -0.785066 9.683650 0.331261 -1.726655 21.718646 0.000001 -0.000000 0.000001 -8.153377 -7.322009 3.936030 0.033406 -0.557414 6.859168 0.173519 -1.260677 15.672953 -0.000001 0.000002 -0.000000 -89.375375 -5.513401 10.981235 82.782385 6.390725 0.240938 8.742572 -7.170849 -5.568668 -0.124395 -0.000000 0.000002 -0.000000 0.000001 0.000000 -90.133956 7.181555 -7.471573 82.762625 -6.162680 -1.881126 9.657613 0.247501 6.524236 -0.191616 -0.000008 -0.000000 -0.000000 -0.000001 -0.000000 
